<?xml version="1.0" standalone="no"?>
<!DOCTYPE svg PUBLIC "-//W3C//DTD SVG 20010904//EN"
 "http://www.w3.org/TR/2001/REC-SVG-20010904/DTD/svg10.dtd">
<svg version="1.0" xmlns="http://www.w3.org/2000/svg"
 width="1400.000000pt" height="1400.000000pt" viewBox="0 0 1400.000000 1400.000000"
 preserveAspectRatio="xMidYMid meet">
<metadata>
Created by potrace 1.14, written by Peter Selinger 2001-2017
</metadata>
<g transform="translate(0.000000,1400.000000) scale(0.100000,-0.100000)"
fill="#000000" stroke="none">
<path d="M0 12428 l0 -1573 673 -3045 c608 -2753 675 -3045 693 -3048 18 -3
84 249 850 3225 l830 3228 829 0 828 0 831 -3228 c765 -2976 832 -3228 850
-3225 18 3 88 313 733 3227 393 1774 715 3226 717 3228 1 2 442 2 978 1 l975
-3 -1173 -4425 c-645 -2434 -1183 -4462 -1195 -4507 l-22 -83 -922 0 -923 0
-39 143 c-22 78 -395 1437 -829 3020 -717 2616 -791 2877 -808 2875 -19 -3
-180 -581 -1652 -5940 l-26 -98 -924 0 c-508 0 -924 2 -924 4 0 6 -340 1289
-344 1301 -3 6 -5 -781 -5 -1747 l-1 -1758 7000 0 7000 0 0 3658 0 3657 -64
38 c-191 114 -411 167 -686 167 -247 0 -383 -29 -577 -120 -355 -168 -602
-490 -704 -916 -50 -211 -49 -167 -49 -2296 l0 -1988 -915 0 -915 0 0 4510 0
4510 915 0 915 0 0 -1740 c0 -1651 1 -1740 18 -1740 12 0 36 39 84 138 342
705 958 1099 1803 1152 88 5 163 10 168 10 4 0 7 1116 7 2480 l0 2480 -7000 0
-7000 0 0 -1572z"/>
</g>
</svg>
